<?xml version="1.0" encoding="UTF-8" standalone="no"?>
<!DOCTYPE svg PUBLIC "-//W3C//DTD SVG 1.1//EN" "http://www.w3.org/Graphics/SVG/1.1/DTD/svg11.dtd">
<svg width="100%" height="100%" viewBox="0 0 279 203" version="1.1" xmlns="http://www.w3.org/2000/svg" xmlns:xlink="http://www.w3.org/1999/xlink" xml:space="preserve" xmlns:serif="http://www.serif.com/" style="fill-rule:evenodd;clip-rule:evenodd;stroke-linejoin:round;stroke-miterlimit:2;">
    <g transform="matrix(1,0,0,1,-1966,-470)">
        <g>
            <g transform="matrix(1,0,0,1,-121.268976,-75.034436)">
                <path d="M2365.775,612.517L2365.775,680L2296.149,612.517L2226.522,680L2156.896,612.517L2087.269,680L2087.269,612.517L2156.896,545.034L2226.522,612.517L2296.149,545.034L2365.775,612.517Z" style="fill:rgb(237,167,162);"/>
            </g>
            <g transform="matrix(1,0,0,1,-121.268976,-75.034436)">
                <path d="M2365.775,680L2365.775,747.483L2296.149,680L2226.522,747.483L2156.896,680L2087.269,747.483L2087.269,680L2156.896,612.517L2226.522,680L2296.149,612.517L2365.775,680Z" style="fill:rgb(242,186,175);"/>
            </g>
            <g transform="matrix(1,0,0,1,-121.268976,-75.034436)">
                <path d="M2365.775,747.483L2226.522,747.483L2296.149,680L2365.775,747.483ZM2226.522,747.483L2087.269,747.483L2156.896,680L2226.522,747.483Z" style="fill:rgb(233,147,148);"/>
            </g>
            <g transform="matrix(1,0,0,1,-121.268976,-75.034436)">
                <path d="M2087.269,612.517L2087.269,545.034L2156.896,545.034L2087.269,612.517ZM2156.896,545.034L2296.149,545.034L2226.522,612.517L2156.896,545.034ZM2296.149,545.034L2365.775,545.034L2365.775,612.517L2296.149,545.034Z" style="fill:rgb(233,147,148);"/>
            </g>
        </g>
    </g>
</svg>
