<?xml version="1.0" encoding="UTF-8" standalone="no"?>
<!-- Created with Inkscape (http://www.inkscape.org/) -->

<svg
   width="108.87193mm"
   height="108.83624mm"
   viewBox="0 0 411.48445 411.34956"
   version="1.1"
   id="svg1"
   xmlns:inkscape="http://www.inkscape.org/namespaces/inkscape"
   xmlns:sodipodi="http://sodipodi.sourceforge.net/DTD/sodipodi-0.dtd"
   xmlns="http://www.w3.org/2000/svg"
   xmlns:svg="http://www.w3.org/2000/svg">
  <sodipodi:namedview
     id="namedview1"
     pagecolor="#ffffff"
     bordercolor="#999999"
     borderopacity="1"
     inkscape:showpageshadow="2"
     inkscape:pageopacity="0"
     inkscape:pagecheckerboard="0"
     inkscape:deskcolor="#d1d1d1"
     inkscape:document-units="mm" />
  <defs
     id="defs1" />
  <g
     inkscape:label="Layer 1"
     inkscape:groupmode="layer"
     id="layer1"
     transform="translate(-179.47065,-355.58511)">
    <path
       style="opacity:1;fill:#1c2224;fill-opacity:1;stroke:none;stroke-width:12.7059;stroke-linecap:round;stroke-linejoin:round;stroke-dasharray:none;stroke-dashoffset:26.52;stroke-opacity:1;paint-order:stroke fill markers"
       id="path67"
       sodipodi:type="arc"
       sodipodi:cx="385.21286"
       sodipodi:cy="561.25983"
       sodipodi:rx="18.897638"
       sodipodi:ry="18.897638"
       sodipodi:start="0"
       sodipodi:end="6.2749689"
       sodipodi:open="true"
       sodipodi:arc-type="arc"
       d="m 404.1105,561.25983 a 18.897638,18.897638 0 0 1 -18.85882,18.8976 18.897638,18.897638 0 0 1 -18.9363,-18.81997 18.897638,18.897638 0 0 1 18.78103,-18.97491 18.897638,18.897638 0 0 1 19.01345,18.74201" />
    <path
       style="opacity:1;fill:#1c2224;fill-opacity:1;stroke:none;stroke-width:12.7059;stroke-linecap:round;stroke-linejoin:round;stroke-dasharray:none;stroke-dashoffset:26.52;stroke-opacity:1;paint-order:stroke fill markers"
       id="path68"
       sodipodi:type="arc"
       sodipodi:cx="198.36829"
       sodipodi:cy="561.25983"
       sodipodi:rx="18.897638"
       sodipodi:ry="18.897638"
       sodipodi:start="0"
       sodipodi:end="6.2749689"
       sodipodi:open="true"
       sodipodi:arc-type="arc"
       d="m 217.26592,561.25983 a 18.897638,18.897638 0 0 1 -18.85882,18.8976 18.897638,18.897638 0 0 1 -18.93629,-18.81997 18.897638,18.897638 0 0 1 18.78102,-18.97491 18.897638,18.897638 0 0 1 19.01346,18.74201" />
    <path
       style="opacity:1;fill:#1c2224;fill-opacity:1;stroke:none;stroke-width:12.7059;stroke-linecap:round;stroke-linejoin:round;stroke-dasharray:none;stroke-dashoffset:26.52;stroke-opacity:1;paint-order:stroke fill markers"
       id="path69"
       sodipodi:type="arc"
       sodipodi:cx="198.36829"
       sodipodi:cy="748.03699"
       sodipodi:rx="18.897638"
       sodipodi:ry="18.897638"
       sodipodi:start="0"
       sodipodi:end="6.2749689"
       sodipodi:open="true"
       sodipodi:arc-type="arc"
       d="m 217.26592,748.03699 a 18.897638,18.897638 0 0 1 -18.85882,18.8976 18.897638,18.897638 0 0 1 -18.93629,-18.81997 18.897638,18.897638 0 0 1 18.78102,-18.97491 18.897638,18.897638 0 0 1 19.01346,18.74201" />
    <path
       style="opacity:1;fill:#1c2224;fill-opacity:1;stroke:none;stroke-width:12.7059;stroke-linecap:round;stroke-linejoin:round;stroke-dasharray:none;stroke-dashoffset:26.52;stroke-opacity:1;paint-order:stroke fill markers"
       id="path70"
       sodipodi:type="arc"
       sodipodi:cx="198.36829"
       sodipodi:cy="374.48273"
       sodipodi:rx="18.897638"
       sodipodi:ry="18.897638"
       sodipodi:start="0"
       sodipodi:end="6.2749689"
       sodipodi:open="true"
       sodipodi:arc-type="arc"
       d="m 217.26592,374.48273 a 18.897638,18.897638 0 0 1 -18.85882,18.8976 18.897638,18.897638 0 0 1 -18.93629,-18.81997 18.897638,18.897638 0 0 1 18.78102,-18.97491 18.897638,18.897638 0 0 1 19.01346,18.74201" />
    <path
       style="opacity:1;fill:#1c2224;fill-opacity:1;stroke:none;stroke-width:12.7059;stroke-linecap:round;stroke-linejoin:round;stroke-dasharray:none;stroke-dashoffset:26.52;stroke-opacity:1;paint-order:stroke fill markers"
       id="path71"
       sodipodi:type="arc"
       sodipodi:cx="385.21286"
       sodipodi:cy="374.48273"
       sodipodi:rx="18.897638"
       sodipodi:ry="18.897638"
       sodipodi:start="0"
       sodipodi:end="6.2749689"
       sodipodi:open="true"
       sodipodi:arc-type="arc"
       d="m 404.1105,374.48273 a 18.897638,18.897638 0 0 1 -18.85882,18.8976 18.897638,18.897638 0 0 1 -18.9363,-18.81997 18.897638,18.897638 0 0 1 18.78103,-18.97491 18.897638,18.897638 0 0 1 19.01345,18.74201" />
    <path
       style="opacity:1;fill:#1c2224;fill-opacity:1;stroke:none;stroke-width:12.7059;stroke-linecap:round;stroke-linejoin:round;stroke-dasharray:none;stroke-dashoffset:26.52;stroke-opacity:1;paint-order:stroke fill markers"
       id="path72"
       sodipodi:type="arc"
       sodipodi:cx="572.05743"
       sodipodi:cy="374.48273"
       sodipodi:rx="18.897638"
       sodipodi:ry="18.897638"
       sodipodi:start="0"
       sodipodi:end="6.2749689"
       sodipodi:open="true"
       sodipodi:arc-type="arc"
       d="m 590.95507,374.48273 a 18.897638,18.897638 0 0 1 -18.85882,18.8976 18.897638,18.897638 0 0 1 -18.93629,-18.81997 18.897638,18.897638 0 0 1 18.78102,-18.97491 18.897638,18.897638 0 0 1 19.01345,18.74201" />
    <path
       style="opacity:1;fill:#1c2224;fill-opacity:1;stroke:none;stroke-width:12.7059;stroke-linecap:round;stroke-linejoin:round;stroke-dasharray:none;stroke-dashoffset:26.52;stroke-opacity:1;paint-order:stroke fill markers"
       id="path73"
       sodipodi:type="arc"
       sodipodi:cx="572.05743"
       sodipodi:cy="748.03699"
       sodipodi:rx="18.897638"
       sodipodi:ry="18.897638"
       sodipodi:start="0"
       sodipodi:end="6.2749689"
       sodipodi:open="true"
       sodipodi:arc-type="arc"
       d="m 590.95507,748.03699 a 18.897638,18.897638 0 0 1 -18.85882,18.8976 18.897638,18.897638 0 0 1 -18.93629,-18.81997 18.897638,18.897638 0 0 1 18.78102,-18.97491 18.897638,18.897638 0 0 1 19.01345,18.74201"
       inkscape:export-filename=".\path73.svg"
       inkscape:export-xdpi="96"
       inkscape:export-ydpi="96" />
    <path
       style="opacity:1;fill:#1c2224;fill-opacity:1;stroke:none;stroke-width:12.7059;stroke-linecap:round;stroke-linejoin:round;stroke-dasharray:none;stroke-dashoffset:26.52;stroke-opacity:1;paint-order:stroke fill markers"
       id="path74"
       sodipodi:type="arc"
       sodipodi:cx="385.21286"
       sodipodi:cy="748.03699"
       sodipodi:rx="18.897638"
       sodipodi:ry="18.897638"
       sodipodi:start="0"
       sodipodi:end="6.2749689"
       sodipodi:open="true"
       sodipodi:arc-type="arc"
       d="m 404.1105,748.03699 a 18.897638,18.897638 0 0 1 -18.85882,18.8976 18.897638,18.897638 0 0 1 -18.9363,-18.81997 18.897638,18.897638 0 0 1 18.78103,-18.97491 18.897638,18.897638 0 0 1 19.01345,18.74201" />
  </g>
</svg>
